#!OML:ASF H:\Terrain\Patient Classification 1\Takeo\Monday\TakeoMonday.ASF
:FULLY-SPECIFIED
:DEGREES
891
root 17.5977 17.1939 0.723765 -5.71527 -4.13646 3.09264
lowerback 4.1708 9.62811 6.66865
upperback 2.19043 13.0524 1.68743
thorax 1.04772 6.58926 -2.15946
lowerneck -8.23317 -12.42 -5.08536
upperneck 3.99789 -17.3922 16.8715
head 4.53166 -7.95911 4.62946
rclavicle 3.60794e-014 -1.59028e-014
rhumerus 87.0587 38.2666 -54.0071
rradius 58.1213
rwrist -41.8119
rhand -44.8702 33.6609
rfingers 7.12502
rthumb -17.6587 4.44278
lclavicle 3.60794e-014 -1.59028e-014
lhumerus 42.249 11.675 43.9321
lradius 85.0246
lwrist 29.1147
lhand -11.6016 23.9974
lfingers 7.12502
lthumb 14.4409 53.4749
rfemur 16.4908 -17.2765 7.59245
rtibia 42.0513
rfoot 4.43416 -40.0062
rtoes 6.12874
lfemur -15.3805 -22.9995 -27.4515
ltibia 37.8936
lfoot -10.9283 -8.36036
ltoes 2.04006
892
root 17.5919 17.1932 0.732737 -5.69939 -4.10658 3.02188
lowerback 3.96989 9.10637 6.09737
upperback 2.37146 12.314 2.50939
thorax 0.980093 6.20737 -1.02418
lowerneck -8.31557 -12.0264 -7.41489
upperneck 4.60605 -16.737 17.0927
head 4.8738 -7.64351 5.0911
rclavicle -3.55328e-014 -3.49861e-014
rhumerus 89.1472 39.7522 -51.4569
rradius 58.8199
rwrist -41.8692
rhand -45.6327 32.795
rfingers 7.12502
rthumb -18.3924 3.64453
lclavicle -3.55328e-014 -3.49861e-014
lhumerus 40.0633 13.3164 44.2559
lradius 85.8738
lwrist 29.3567
lhand -11.9418 23.9379
lfingers 7.12502
lthumb 14.1131 53.4386
rfemur 16.5302 -17.0579 7.80159
rtibia 41.9036
rfoot 5.10223 -40.0402
rtoes 5.55758
lfemur -15.3749 -22.9839 -27.361
ltibia 37.9353
lfoot -10.9054 -8.24519
ltoes 2.37805
893
root 17.5838 17.1949 0.748003 -5.71849 -4.12801 2.81879
lowerback 4.06523 9.38162 6.43923
upperback 2.10527 12.712 2.23423
thorax 0.812799 6.40262 -1.50738
lowerneck -7.92555 -12.2544 -6.89547
upperneck 4.6392 -17.117 17.048
head 4.81578 -7.83708 4.97831
rclavicle 3.72721e-014 1.59028e-014
rhumerus 88.564 39.2016 -51.5253
rradius 59.263
rwrist -41.6036
rhand -45.8998 32.1308
rfingers 7.12502
rthumb -18.6493 3.00479
lclavicle 3.72721e-014 1.59028e-014
lhumerus 40.2566 12.7626 44.4457
lradius 86.5752
lwrist 29.8239
lhand -12.134 23.7155
lfingers 7.12502
lthumb 13.9279 53.229
rfemur 16.6165 -16.7015 8.23667
rtibia 41.7932
rfoot 5.00372 -40.2098
rtoes 5.34721
lfemur -15.266 -23.075 -27.1243
ltibia 37.931
lfoot -10.7847 -8.23716
ltoes 4.53589
894
root 17.5772 17.1969 0.76225 -5.77017 -4.13945 2.85242
lowerback 4.08364 9.49297 6.45357
upperback 2.04991 12.8652 2.08499
thorax 0.793908 6.47921 -1.66885
lowerneck -8.0027 -12.3022 -6.53636
upperneck 4.79329 -17.2086 16.7547
head 4.82577 -7.87646 4.82041
rclavicle 8.72665e-014 -3.02153e-014
rhumerus 88.5849 38.9564 -51.1359
rradius 59.7672
rwrist -41.5327
rhand -45.5155 31.3719
rfingers 7.12502
rthumb -18.2797 2.21084
lclavicle 8.72665e-014 -3.02153e-014
lhumerus 40.1978 12.7657 44.7874
lradius 87.2741
lwrist 30.178
lhand -12.0887 23.4567
lfingers 7.12502
lthumb 13.9715 52.9672
rfemur 16.7344 -16.4382 8.30488
rtibia 41.7239
rfoot 4.43885 -40.2504
rtoes 5.3846
lfemur -15.1469 -23.0996 -27.1673
ltibia 37.887
lfoot -10.7647 -8.44019
ltoes 5.92628
895
root 17.5753 17.1989 0.770962 -5.85149 -4.20778 3.00601
lowerback 4.12152 9.50805 6.31381
upperback 2.1691 12.8783 2.0162
thorax 0.883298 6.49029 -1.66045
lowerneck -8.71844 -12.2907 -6.29966
upperneck 5.25203 -17.2149 16.2646
head 5.01646 -7.83981 4.58783
rclavicle 7.43455e-014 1.66979e-014
rhumerus 89.0628 38.8433 -50.4203
rradius 60.2254
rwrist -41.3229
rhand -45.4238 30.9771
rfingers 7.12502
rthumb -18.1915 1.80772
lclavicle 7.43455e-014 1.66979e-014
lhumerus 39.946 13.1257 45.1103
lradius 88.0886
lwrist 30.3166
lhand -11.6064 23.7516
lfingers 7.12502
lthumb 14.4363 53.2295
rfemur 16.8569 -16.2812 8.12622
rtibia 41.6076
rfoot 4.98404 -40.0352
rtoes 5.05515
lfemur -15.0115 -22.9555 -27.3951
ltibia 37.8905
lfoot -10.9903 -8.42383
ltoes 3.94504
896
root 17.5785 17.2038 0.780406 -5.78007 -4.25644 2.87673
lowerback 4.03647 9.49999 6.50277
upperback 2.0799 12.8708 1.98872
thorax 0.884509 6.48648 -1.77454
lowerneck -9.03397 -12.27 -6.15939
upperneck 5.77466 -17.2271 15.8581
head 5.17736 -7.82255 4.41616
rclavicle -9.96408e-014 1.66979e-014
rhumerus 89.1069 38.9521 -50.0087
rradius 60.6665
rwrist -41.0111
rhand -45.5533 30.9442
rfingers 7.12502
rthumb -18.316 1.78647
lclavicle -9.96408e-014 1.66979e-014
lhumerus 39.3784 13.2096 45.2609
lradius 88.914
lwrist 30.411
lhand -11.4893 24.1266
lfingers 7.12502
lthumb 14.5491 53.5964
rfemur 16.8451 -16.2416 8.27408
rtibia 41.4668
rfoot 6.12823 -39.8386
rtoes 4.13314
lfemur -15.0539 -22.9466 -27.2569
ltibia 37.9265
lfoot -11.1129 -8.25897
ltoes 3.44209
897
root 17.5814 17.2098 0.790325 -5.65398 -4.33284 2.71482
lowerback 3.82353 9.46827 6.70667
upperback 2.0036 12.8206 1.96112
thorax 0.969205 6.46387 -1.87129
lowerneck -9.41861 -12.2357 -5.96007
upperneck 6.35777 -17.2312 15.4344
head 5.36165 -7.79558 4.22674
rclavicle -1.86361e-013 -7.95139e-015
rhumerus 89.148 39.091 -49.6152
rradius 61.1904
rwrist -40.8497
rhand -45.2502 31.064
rfingers 7.12502
rthumb -18.0244 1.87916
lclavicle -1.86361e-013 -7.95139e-015
lhumerus 38.7789 13.3749 45.314
lradius 89.6468
lwrist 30.8337
lhand -12.0664 23.9084
lfingers 7.12502
lthumb 13.993 53.4175
rfemur 16.8019 -16.1482 8.49615
rtibia 41.3355
rfoot 6.26098 -39.8586
rtoes 4.54548
lfemur -15.1922 -23.0289 -27.0229
ltibia 37.9577
lfoot -11.0759 -8.21611
ltoes 4.81943
